<svg width="536" height="248" viewBox="0 0 536 248" fill="none" xmlns="http://www.w3.org/2000/svg">
<path d="M264.795 54.8187L256.2 53.3751V78.1226C256.2 79.3061 257.071 80.3014 258.246 80.4628L266.777 81.6464V57.15C266.777 56.0023 265.943 55.016 264.795 54.8187Z" fill="white"/>
<path d="M290.211 82.1845C290.211 83.6191 288.937 84.722 287.501 84.5247L266.769 81.6465V99.9919C266.769 101.14 265.934 102.126 264.786 102.323L235.746 107.192C234.293 107.434 232.974 106.331 232.974 104.861V52.2724C232.974 50.8108 234.293 49.699 235.746 49.9411L256.183 53.3752V46.2379C256.183 45.0544 257.053 44.0591 258.228 43.8977L287.483 39.8269C288.91 39.6297 290.193 40.7325 290.193 42.1672V82.1845H290.211ZM207.675 14.0483C203.44 14.0483 199.995 17.4735 199.995 21.6788V126.398C199.995 130.971 203.997 134.513 208.563 133.984L314.873 121.727C318.748 121.278 321.673 118.014 321.673 114.141V21.6788C321.673 17.4556 318.228 14.0483 313.993 14.0483H207.675Z" fill="white"/>
<path d="M262.478 164.02C251.99 164.02 243.687 170.575 239.863 184.122C237.132 193.736 231.123 198.434 220.526 198.434H203.92V216.132H222.711C232.434 216.132 240.628 212.855 245.107 204.224C248.166 213.51 256.687 216.46 262.587 216.46C273.184 216.46 284.983 207.501 284.983 190.349C284.983 174.18 275.587 164.02 262.478 164.02ZM253.519 190.349C253.519 178.66 269.579 178.66 269.579 190.349C269.579 202.039 253.519 201.493 253.519 190.349Z" fill="white"/>
<path d="M178.573 192.753C178.573 196.467 177.044 198.761 174.422 198.761C171.8 198.761 170.052 196.467 170.052 192.753V168.39H154.539V193.954C154.539 197.232 153.446 198.761 151.807 198.761C150.169 198.761 149.076 197.45 149.076 195.265V174.399H133.563V193.954C133.563 197.123 132.47 198.761 130.613 198.761C128.647 198.761 127.554 197.341 127.554 194.828V174.399H112.041V192.316C112.041 196.249 110.402 198.761 107.452 198.761C104.94 198.761 103.519 197.123 103.519 194.391V168.062H88.006V187.072C88.006 194.938 84.947 198.434 77.955 198.434H59.1642C44.9618 198.434 41.3566 184.559 52.8278 171.121H34.8017C22.7843 195.593 36.0034 216.132 58.0717 216.132H62.3324C81.3418 216.132 86.3672 214.384 90.5187 210.014C93.1407 214.275 97.4014 216.46 103.519 216.46C108.326 216.46 113.024 214.056 114.772 210.014C116.52 213.838 120.999 216.46 125.806 216.46C130.613 216.46 135.529 213.619 136.84 210.014C138.37 213.838 143.067 216.46 148.093 216.46C152.354 216.46 156.724 213.947 158.472 210.014C161.531 213.838 167.648 216.46 173.439 216.46C183.599 216.46 194.087 209.031 194.087 193.627V150.583H178.573V192.753Z" fill="white"/>
<path d="M60.4754 166.97C64.156 166.97 66.896 165.16 67.912 162.222C68.9597 165.16 71.7871 166.97 75.5518 166.97C80.2495 166.97 83.527 164.02 83.527 159.541C83.527 155.062 80.3587 152.221 75.5518 152.221C71.7161 152.221 68.9444 154.017 67.912 156.882C66.9124 154.017 64.2259 152.221 60.4754 152.221C55.5592 152.221 52.391 155.171 52.391 159.541C52.391 163.911 55.5592 166.97 60.4754 166.97Z" fill="white"/>
<path d="M360.692 167.625C365.39 167.625 368.668 164.676 368.668 160.196C368.668 155.717 365.499 152.877 360.692 152.877C355.885 152.877 352.608 155.826 352.608 160.196C352.608 164.566 355.885 167.625 360.692 167.625Z" fill="white"/>
<path d="M382.541 219.956C378.279 219.956 375.333 222.173 374.624 225.61C373.937 222.173 371.086 219.956 366.918 219.956C362.002 219.956 358.834 222.905 358.834 227.275C358.834 231.645 362.002 234.704 366.918 234.704C371 234.704 373.925 232.477 374.622 228.954C375.344 232.477 378.364 234.704 382.541 234.704C387.239 234.704 390.516 231.754 390.516 227.275C390.516 222.796 387.348 219.956 382.541 219.956Z" fill="white"/>
<path d="M473.327 219.956C468.411 219.956 465.242 222.905 465.242 227.275C465.242 231.645 468.52 234.704 473.327 234.704C478.134 234.704 481.302 231.754 481.302 227.275C481.302 222.796 478.134 219.956 473.327 219.956Z" fill="white"/>
<path d="M477.261 164.785V192.971C477.261 196.904 475.731 198.871 472.891 198.871C470.05 198.871 468.084 196.576 468.084 192.971V150.583H452.571V183.685C452.571 190.921 450.273 194.788 445.631 196.722L438.477 159.432H422.964L430.447 198.434H418.048V216.132H421.435C438.805 216.132 449.512 213.291 455.52 205.644C458.689 212.636 464.806 216.46 472.563 216.46C482.614 216.46 492.774 210.232 492.774 195.047V164.785H477.261Z" fill="white"/>
<path d="M405.485 149.272C401.328 149.272 398.422 151.38 397.622 154.673C396.85 151.38 394.035 149.272 389.971 149.272C385.055 149.272 381.887 152.221 381.887 156.591C381.887 160.961 385.055 164.02 389.971 164.02C393.955 164.02 396.838 161.899 397.622 158.523C398.433 161.899 401.409 164.02 405.485 164.02C410.182 164.02 413.46 161.071 413.46 156.591C413.46 152.112 410.292 149.272 405.485 149.272Z" fill="white"/>
<path d="M397.947 194.501C397.947 197.56 396.199 198.761 394.56 198.761C392.703 198.761 390.955 197.45 390.955 194.501V174.399H375.442V192.534C375.442 196.576 373.584 198.761 371.836 198.761C370.088 198.761 368.45 197.341 368.45 194.501V174.399H352.936V187.072C352.936 194.828 350.751 198.434 342.885 198.434H333.272V164.785H313.06C299.514 164.785 289.572 176.365 289.572 190.349C289.572 204.333 299.514 216.132 314.153 216.132H317.758C315.792 221.813 303.01 220.72 293.942 216.023V232.519C305.632 236.999 327.372 237.436 332.835 216.132H340.7C347.037 216.132 353.483 213.401 355.34 210.014C357.416 214.165 361.567 216.46 366.92 216.46C372.273 216.46 376.425 213.947 378.719 210.014C381.232 214.275 386.257 216.46 393.686 216.46C403.191 216.46 413.46 210.014 413.46 193.954V168.39H397.947V194.501ZM317.758 198.434H314.153C308.581 198.434 305.085 195.265 305.085 190.349C305.085 185.433 308.581 182.483 314.153 182.483H317.758V198.434Z" fill="white"/>
</svg>
