<svg width="538" height="276" viewBox="0 0 538 276" fill="none" xmlns="http://www.w3.org/2000/svg">
<path d="M272.566 65.6447L263.787 64.1702V89.4483C263.787 90.6572 264.676 91.6739 265.876 91.8387L274.591 93.0477V68.026C274.591 66.8537 273.739 65.8462 272.566 65.6447Z" fill="black"/>
<path d="M298.526 93.5973C298.526 95.0627 297.225 96.1892 295.759 95.9877L274.582 93.0478V111.787C274.582 112.959 273.73 113.966 272.557 114.168L242.894 119.141C241.409 119.388 240.062 118.262 240.062 116.76V63.0437C240.062 61.5508 241.409 60.4152 242.894 60.6624L263.769 64.1702V56.8799C263.769 55.6709 264.658 54.6543 265.858 54.4895L295.741 50.3314C297.198 50.1299 298.508 51.2564 298.508 52.7218V93.5973H298.517H298.526ZM322.81 24H214.221C209.896 24 206.377 27.4986 206.377 31.7941V138.759C206.377 143.43 210.464 147.048 215.128 146.507L323.717 133.987C327.676 133.529 330.663 130.196 330.663 126.239V31.7941C330.663 27.4803 327.145 24 322.819 24H322.81Z" fill="black"/>
<path d="M197.401 177.253C194.722 177.253 192.44 178.023 190.82 179.487C189.192 180.957 188.3 183.067 188.3 185.599C188.3 188.137 189.219 190.246 190.857 191.713C192.487 193.173 194.766 193.945 197.401 193.945C200.036 193.945 202.315 193.173 203.945 191.713C205.583 190.246 206.502 188.137 206.502 185.599C206.502 183.067 205.611 180.957 203.982 179.487C202.362 178.023 200.081 177.253 197.401 177.253Z" fill="black"/>
<path d="M425.646 177.253C422.966 177.253 420.685 178.023 419.065 179.487C417.436 180.957 416.545 183.067 416.545 185.599C416.545 188.137 417.464 190.246 419.102 191.713C420.732 193.173 423.011 193.945 425.646 193.945C428.281 193.945 430.56 193.173 432.19 191.713C433.828 190.246 434.747 188.137 434.747 185.599C434.747 183.067 433.855 180.957 432.227 179.487C430.607 178.023 428.325 177.253 425.646 177.253Z" fill="black"/>
<path d="M96.9072 181.608H80.9704V250.878H96.9072V181.608Z" fill="black"/>
<path d="M408.706 181.608H392.77V250.878H408.706V181.608Z" fill="black"/>
<path fill-rule="evenodd" clip-rule="evenodd" d="M51.3053 183.59H32.1039V250.878H48.7959V229.828H51.3053C58.3417 229.828 64.0823 227.656 68.0637 223.613C72.0438 219.571 74.1882 213.739 74.1882 206.567C74.1882 199.441 72.0428 193.678 68.0599 189.695C64.0771 185.712 58.3373 183.59 51.3053 183.59ZM48.7959 215.496V197.922H49.7006C52.4011 197.922 54.3587 198.684 55.6512 200.091C56.9532 201.508 57.685 203.694 57.685 206.756C57.685 209.868 56.952 212.025 55.6565 213.404C54.3687 214.775 52.4126 215.496 49.7006 215.496H48.7959Z" fill="black"/>
<path d="M172.227 188.121H160.803L160.448 191.197C160.079 194.474 159.258 196.759 157.897 198.446C156.538 200.132 154.577 201.3 151.769 202.221L151.287 202.379V212.459H156.29V235.358C156.29 240.879 157.561 244.963 160.208 247.659C162.857 250.359 166.755 251.539 171.716 251.539C174.994 251.539 177.987 251.057 180.599 250.283L181.1 250.134V234.558L180.113 235.003C178.3 235.819 176.604 236.168 175.303 236.168C174.264 236.168 173.53 235.929 173.051 235.467C172.577 235.01 172.227 234.212 172.227 232.809V212.459H181.572V198.316H172.227V188.121Z" fill="black"/>
<path d="M495.199 188.121H483.775L483.42 191.197C483.051 194.474 482.229 196.759 480.869 198.446C479.509 200.132 477.548 201.3 474.741 202.221L474.259 202.379V212.459H479.262V235.358C479.262 240.879 480.533 244.963 483.179 247.659C485.828 250.359 489.727 251.539 494.688 251.539C497.966 251.539 500.959 251.057 503.571 250.283L504.072 250.134V234.558L503.085 235.003C501.272 235.819 499.576 236.168 498.275 236.168C497.236 236.168 496.502 235.929 496.023 235.467C495.549 235.01 495.199 234.212 495.199 232.809V212.459H504.544V198.316H495.199V188.121Z" fill="black"/>
<path fill-rule="evenodd" clip-rule="evenodd" d="M124.041 197.56C119.045 197.56 113.956 198.521 109.251 200.345L108.804 200.519V214.637L109.84 214.073C112.89 212.409 116.926 210.949 121.115 210.949C124.032 210.949 126.209 211.656 127.646 212.882C129.067 214.093 129.855 215.888 129.855 218.272V218.661C127.272 217.222 124.237 216.44 120.832 216.44C115.952 216.44 111.751 218.077 108.769 221.109C105.788 224.14 104.085 228.505 104.085 233.847C104.085 239.187 105.762 243.574 108.718 246.629C111.676 249.686 115.855 251.35 120.737 251.35C124.63 251.35 128.186 250.35 130.893 248.441V250.878H145.791V218.178C145.791 211.573 143.835 206.387 140.072 202.859C136.315 199.337 130.858 197.56 124.041 197.56ZM119.738 233.564C119.738 231.793 120.34 230.37 121.297 229.393C122.253 228.416 123.603 227.845 125.174 227.845C126.743 227.845 128.039 228.414 128.946 229.382C129.857 230.354 130.421 231.778 130.421 233.564C130.421 235.402 129.854 236.85 128.944 237.832C128.037 238.81 126.742 239.378 125.174 239.378C122.095 239.378 119.738 237.076 119.738 233.564Z" fill="black"/>
<path d="M458.391 197.56C453.228 197.56 448.941 198.887 445.933 201.483C442.912 204.091 441.266 207.908 441.266 212.703C441.266 217.726 443.056 221.955 447.412 226.313L447.418 226.319L451.276 230.366L451.282 230.372L451.288 230.378C453.496 232.585 454.198 233.615 454.198 234.791C454.198 235.639 453.902 236.171 453.433 236.517C452.928 236.889 452.131 237.112 451.028 237.112C448.603 237.112 446.013 235.987 442.547 233.645L441.455 232.907V249.738L441.933 249.898C445.406 251.055 449.162 251.633 452.727 251.633C458.226 251.633 462.821 250.161 466.05 247.33C469.291 244.487 471.079 240.343 471.079 235.169C471.079 232.284 470.514 229.812 469.29 227.438C468.073 225.077 466.219 222.845 463.692 220.413L463.69 220.411L459.169 215.984L459.167 215.982C457.566 214.38 457.108 213.524 457.108 212.703C457.108 212.16 457.318 211.757 457.702 211.469C458.108 211.164 458.769 210.949 459.712 210.949C461.439 210.949 463.683 211.647 466.496 212.96L467.492 213.425V198.739L466.946 198.616C463.984 197.947 461.193 197.56 458.391 197.56Z" fill="black"/>
<path d="M239.774 197.749C235.306 197.749 231.506 199.09 228.486 201.72V198.316H214.248V250.878H230.185V218.744C230.185 216.798 230.737 215.33 231.63 214.356C232.516 213.388 233.805 212.837 235.432 212.837C237.11 212.837 238.395 213.391 239.267 214.353C240.147 215.324 240.679 216.79 240.679 218.744V250.878H256.616V215.157C256.616 209.866 254.963 205.501 251.992 202.456C249.02 199.41 244.793 197.749 239.774 197.749Z" fill="black"/>
<path d="M341.574 197.749C337.272 197.749 333.631 198.94 330.569 201.691V198.316H316.332V250.878H332.268V218.744C332.268 216.776 332.761 215.305 333.587 214.338C334.401 213.385 335.609 212.837 337.232 212.837C338.856 212.837 340.063 213.385 340.877 214.338C341.703 215.305 342.196 216.776 342.196 218.744V250.878H358.133V218.744C358.133 216.783 358.645 215.312 359.484 214.341C360.313 213.382 361.525 212.837 363.096 212.837C364.72 212.837 365.928 213.385 366.741 214.338C367.568 215.305 368.06 216.776 368.06 218.744V250.878H383.903V215.157C383.903 209.826 382.301 205.46 379.364 202.423C376.424 199.384 372.218 197.749 367.155 197.749C361.935 197.749 357.556 199.537 354.251 203.214C351.343 199.605 346.946 197.749 341.574 197.749Z" fill="black"/>
<path d="M205.37 198.316H189.433V250.878H205.37V198.316Z" fill="black"/>
<path d="M281.176 198.316H265.239V233.942C265.239 239.222 266.791 243.609 269.69 246.682C272.593 249.759 276.778 251.444 281.892 251.444C286.282 251.444 290.085 250.175 293.18 247.406V250.878H307.324V198.316H291.387V230.449C291.387 232.352 290.857 233.795 289.978 234.755C289.105 235.708 287.819 236.263 286.14 236.263C284.465 236.263 283.259 235.711 282.46 234.774C281.647 233.82 281.176 232.374 281.176 230.449V198.316Z" fill="black"/>
<path d="M433.614 198.316H417.677V250.878H433.614V198.316Z" fill="black"/>
</svg>
