<svg width="641" height="123" viewBox="0 0 641 123" fill="none" xmlns="http://www.w3.org/2000/svg">
<path d="M66.1885 41.6445C67.3614 41.846 68.2139 42.854 68.2139 44.0264V69.0479L59.499 67.8389C58.2988 67.6738 57.4102 66.6571 57.4102 65.4482V40.1699L66.1885 41.6445Z" fill="#7E05E8"/>
<path fill-rule="evenodd" clip-rule="evenodd" d="M116.442 0C120.768 0 124.287 3.48024 124.287 7.79395V102.239C124.287 106.196 121.299 109.529 117.341 109.987L8.75098 122.508C4.08683 123.048 0 119.43 0 114.759V7.79395C7.86452e-05 3.49867 3.51871 0.000183589 7.84375 0H116.442ZM89.3643 26.3311L59.4814 30.4893C58.281 30.6541 57.3916 31.6709 57.3916 32.8799V40.1699L36.5176 36.6621C35.0331 36.4148 33.6855 37.5511 33.6855 39.0439V92.7598C33.6856 94.2618 35.0331 95.3879 36.5176 95.1406L66.1797 90.168C67.3526 89.9665 68.2051 88.9585 68.2051 87.7861V69.0479L89.3818 71.9873C90.8479 72.1888 92.1492 71.0629 92.1494 69.5977H92.1318V28.7217C92.1318 27.2565 90.8211 26.1298 89.3643 26.3311Z" fill="#7E05E8"/>
<path fill-rule="evenodd" clip-rule="evenodd" d="M594.547 37.2256C597.349 37.2256 600.14 37.6125 603.102 38.2812L603.645 38.4033V53.0801L602.653 52.6182C599.84 51.3055 597.596 50.6065 595.868 50.6064C594.925 50.6065 594.263 50.8223 593.855 51.1279C593.471 51.4163 593.261 51.8201 593.261 52.3643C593.261 53.1863 593.719 54.0429 595.317 55.6426L599.844 60.0752L600.31 60.5283C602.601 62.787 604.302 64.8878 605.443 67.1016C606.667 69.4749 607.231 71.9458 607.231 74.8301C607.231 80.0026 605.443 84.1467 602.203 86.9883C598.975 89.8192 594.381 91.291 588.883 91.291C585.319 91.291 581.563 90.7129 578.091 89.5557L577.614 89.3975V72.5752L578.7 73.3096C582.167 75.6518 584.758 76.7772 587.184 76.7773C588.287 76.7773 589.086 76.5539 589.591 76.1816C590.061 75.835 590.357 75.3013 590.357 74.4531C590.357 73.2746 589.653 72.2443 587.446 70.0371L587.44 70.0312L587.435 70.0244L587.938 69.5439L587.938 69.543L587.435 70.0244L583.564 65.9658C579.214 61.6109 577.426 57.3837 577.426 52.3643C577.426 47.5701 579.071 43.7535 582.092 41.1465C585.098 38.5519 589.385 37.2256 594.547 37.2256ZM594.83 56.1406C594.645 55.9553 594.472 55.7767 594.312 55.6055L594.83 56.1406ZM595.276 37.9307C595.204 37.9289 595.132 37.927 595.06 37.9258L594.547 37.9219C594.79 37.9219 595.033 37.9249 595.276 37.9307Z" fill="#7E05E8"/>
<path fill-rule="evenodd" clip-rule="evenodd" d="M308.38 37.9805H317.725V52.1172H308.38V72.4707C308.38 73.874 308.73 74.6738 309.205 75.1318C309.685 75.594 310.42 75.833 311.459 75.833C312.761 75.833 314.457 75.4831 316.271 74.667L317.253 74.2256V89.793L316.754 89.9404C314.142 90.7142 311.149 91.1963 307.872 91.1963C302.912 91.1963 299.014 90.0169 296.366 87.3184C293.721 84.6227 292.45 80.54 292.45 75.0195V52.1172H287.447V42.043L287.927 41.8857L288.443 41.71C290.977 40.8169 292.781 39.6908 294.056 38.1104C295.417 36.4223 296.238 34.1361 296.607 30.8584L296.608 30.8564L296.892 28.4023L296.962 27.7861H308.38V37.9805ZM301.793 89.709C301.909 89.7439 302.026 89.7778 302.145 89.8105C301.915 89.7471 301.69 89.6799 301.47 89.6074L301.793 89.709ZM311.043 76.5176L311.459 76.5293C311.234 76.5293 311.017 76.5155 310.808 76.4941C310.885 76.5021 310.963 76.5127 311.043 76.5176ZM307.7 73.0137C307.703 73.0495 307.707 73.0849 307.71 73.1201C307.707 73.0824 307.703 73.0444 307.7 73.0059V73.0137Z" fill="#7E05E8"/>
<path fill-rule="evenodd" clip-rule="evenodd" d="M631.352 37.9805H640.696V52.1172H631.352V72.4707C631.352 73.874 631.702 74.6738 632.177 75.1318C632.656 75.594 633.391 75.833 634.431 75.833C635.732 75.833 637.429 75.4831 639.242 74.667L640.225 74.2256V89.793L639.727 89.9404C637.115 90.7143 634.121 91.1963 630.844 91.1963C625.884 91.1963 621.986 90.0169 619.338 87.3184C616.693 84.6227 615.422 80.54 615.422 75.0195V52.1172H610.419V42.043L610.898 41.8857L611.415 41.71C613.949 40.8169 615.753 39.6908 617.027 38.1104C618.389 36.4223 619.21 34.1361 619.579 30.8584L619.58 30.8564L619.935 27.7861H631.352V37.9805ZM624.765 89.709C624.881 89.7439 624.998 89.7778 625.116 89.8105C624.887 89.7471 624.662 89.6799 624.441 89.6074L624.765 89.709Z" fill="#7E05E8"/>
<path fill-rule="evenodd" clip-rule="evenodd" d="M417.329 70.1104C417.329 72.036 417.799 73.4828 418.613 74.4375C419.413 75.3755 420.62 75.9277 422.296 75.9277C423.975 75.9277 425.263 75.3724 426.137 74.4189C427.017 73.458 427.547 72.0137 427.547 70.1104V37.9805H443.477V90.5352H429.34V87.0576C426.244 89.8308 422.44 91.1015 418.048 91.1016C412.935 91.1015 408.751 89.4174 405.849 86.3408C402.951 83.2689 401.399 78.8826 401.399 73.6035V37.9805H417.329V70.1104ZM418.268 75.0938C418.295 75.1227 418.325 75.1496 418.354 75.1777C418.321 75.1455 418.287 75.1143 418.256 75.0811L418.268 75.0938ZM402.112 74.5498C402.115 74.6102 402.117 74.6704 402.12 74.7305C402.111 74.5164 402.104 74.3006 402.1 74.083L402.112 74.5498ZM428.202 71.0146C428.207 70.9609 428.213 70.9069 428.217 70.8525V70.8418C428.213 70.8998 428.207 70.9574 428.202 71.0146Z" fill="#7E05E8"/>
<path fill-rule="evenodd" clip-rule="evenodd" d="M260.197 37.2256C267.014 37.2256 272.47 39.0018 276.226 42.5225C279.988 46.0498 281.944 51.2346 281.944 57.8389V90.5352H267.053V88.0928C264.345 90.0046 260.788 91.0078 256.894 91.0078C252.012 91.0078 247.834 89.3441 244.877 86.2881C241.922 83.2334 240.244 78.8478 240.244 73.5088C240.244 68.1668 241.947 63.8031 244.928 60.7725C247.909 57.7418 252.11 56.1045 256.988 56.1045C260.396 56.1046 263.432 56.8903 266.015 58.3311V57.9336C266.015 55.5491 265.226 53.7526 263.805 52.54C262.367 51.3137 260.189 50.6065 257.271 50.6064C253.082 50.6064 249.044 52.0668 245.994 53.7305L244.964 54.293V40.1826L245.409 40.0098C250.113 38.1857 255.202 37.2256 260.197 37.2256ZM261.33 67.5029C259.758 67.5029 258.407 68.0741 257.45 69.0518C256.493 70.0293 255.891 71.4532 255.891 73.2256C255.891 76.7391 258.249 79.042 261.33 79.042C262.899 79.0419 264.195 78.4737 265.103 77.4951C266.013 76.5126 266.581 75.0637 266.581 73.2256C266.581 71.4389 266.016 70.0133 265.105 69.041C264.198 68.0719 262.9 67.503 261.33 67.5029ZM256.987 56.8008C257.444 56.8008 257.893 56.8151 258.335 56.8438C258.116 56.8295 257.895 56.8187 257.673 56.8115C257.447 56.8042 257.217 56.8008 256.987 56.8008ZM252.822 38.6172C252.73 38.6346 252.637 38.6538 252.545 38.6719C252.697 38.6421 252.85 38.613 253.003 38.585C252.943 38.596 252.882 38.6059 252.822 38.6172ZM254.66 38.3145C254.608 38.3219 254.555 38.3303 254.503 38.3379C254.634 38.3188 254.766 38.301 254.897 38.2832C254.818 38.2939 254.739 38.3033 254.66 38.3145Z" fill="#7E05E8"/>
<path fill-rule="evenodd" clip-rule="evenodd" d="M187.461 23.2549C194.492 23.2549 200.232 25.3765 204.214 29.3584C208.196 33.3404 210.341 39.1033 210.341 46.2285C210.341 53.3995 208.196 59.2307 204.217 63.2715C200.236 67.3134 194.496 69.4853 187.461 69.4854H184.948V90.5352H168.264V23.2549H187.461ZM188.104 68.7832L188.718 68.7656C188.812 68.762 188.907 68.7556 189.001 68.751C188.704 68.7654 188.405 68.7773 188.104 68.7832ZM184.948 55.1602H185.856C188.569 55.1601 190.527 54.4392 191.815 53.0674C193.112 51.6874 193.845 49.529 193.845 46.417C193.845 43.355 193.112 41.1683 191.81 39.75C190.516 38.3421 188.557 37.5801 185.856 37.5801H184.948V55.1602ZM191.686 54.1328L191.741 54.0908C191.756 54.0785 191.769 54.0642 191.784 54.0518C191.752 54.0792 191.719 54.106 191.686 54.1328ZM194.626 24.8105C194.808 24.8577 194.989 24.906 195.168 24.957L194.626 24.8105C194.444 24.7633 194.26 24.7172 194.075 24.6738L194.626 24.8105Z" fill="#7E05E8"/>
<path d="M233.06 90.5352H217.13V21.2725H233.06V90.5352Z" fill="#7E05E8"/>
<path d="M341.522 90.5352H325.593V37.9805H341.522V90.5352Z" fill="#7E05E8"/>
<path fill-rule="evenodd" clip-rule="evenodd" d="M375.931 37.4141C380.949 37.4142 385.175 39.0745 388.146 42.1201C391.115 45.1643 392.768 49.5278 392.769 54.8184V90.5352H376.839V58.4053C376.839 56.451 376.306 54.9831 375.426 54.0117C374.553 53.0489 373.267 52.4942 371.588 52.4941C369.96 52.4942 368.671 53.0466 367.783 54.0146C366.89 54.9892 366.338 56.4581 366.338 58.4053V90.5352H350.408V37.9805H364.639V41.3896C367.659 38.7569 371.46 37.4141 375.931 37.4141ZM365.749 56.9297C365.678 57.394 365.641 57.8864 365.641 58.4053C365.641 57.886 365.678 57.3934 365.75 56.9287L365.749 56.9297ZM376.44 38.1172C376.422 38.1167 376.403 38.1156 376.384 38.1152C376.234 38.1121 376.083 38.1104 375.931 38.1104C376.102 38.1104 376.271 38.113 376.44 38.1172Z" fill="#7E05E8"/>
<path fill-rule="evenodd" clip-rule="evenodd" d="M503.312 37.4141C508.373 37.4141 512.579 39.0486 515.518 42.0869C518.454 45.1228 520.055 49.4878 520.055 54.8184V90.5352H504.22V58.4053C504.22 56.4365 503.728 54.9646 502.9 53.9961C502.086 53.0429 500.877 52.4943 499.253 52.4941C497.68 52.4941 496.467 53.0409 495.638 54C494.798 54.9716 494.285 56.444 494.285 58.4053V90.5352H478.355V58.4053C478.355 56.4365 477.863 54.9646 477.036 53.9961C476.222 53.0429 475.013 52.4943 473.389 52.4941C471.765 52.4941 470.556 53.0431 469.741 53.9961C468.914 54.9646 468.421 56.4365 468.421 58.4053V90.5352H452.491V37.9805H466.722V41.3613C469.784 38.6072 473.426 37.4141 477.73 37.4141C483.103 37.4141 487.5 39.2725 490.406 42.8838C493.711 39.2044 498.09 37.4141 503.312 37.4141ZM468.869 53.9932C468.816 54.0719 468.765 54.1527 468.715 54.2354C468.814 54.0699 468.921 53.9123 469.035 53.7627L468.869 53.9932ZM470.485 52.4941C470.243 52.6311 470.014 52.7874 469.802 52.9629C469.943 52.846 470.093 52.7376 470.248 52.6377C470.326 52.5878 470.405 52.5399 470.485 52.4941ZM498.006 51.9111C497.711 51.9675 497.428 52.0452 497.159 52.1426C497.249 52.1101 497.341 52.0797 497.434 52.0518C497.619 51.9959 497.809 51.9487 498.006 51.9111ZM490.284 43.8682C490.2 43.7516 490.114 43.6365 490.026 43.5234L490.023 43.5205L490.284 43.8682ZM466.806 42.2324C466.706 42.3285 466.607 42.4267 466.508 42.5264L466.806 42.2324C466.906 42.1364 467.006 42.0426 467.107 41.9502L466.806 42.2324Z" fill="#7E05E8"/>
<path d="M544.859 90.5352H528.93V21.2725H544.859V90.5352Z" fill="#7E05E8"/>
<path d="M569.767 90.5352H553.837V37.9805H569.767V90.5352Z" fill="#7E05E8"/>
<path fill-rule="evenodd" clip-rule="evenodd" d="M333.558 16.918C336.236 16.9181 338.517 17.688 340.136 19.1504C341.763 20.6203 342.655 22.7297 342.655 25.2607C342.655 27.7975 341.736 29.9053 340.099 31.3721C338.47 32.8313 336.192 33.6024 333.558 33.6025C330.923 33.6025 328.644 32.8314 327.016 31.3721C325.379 29.9053 324.46 27.7976 324.46 25.2607C324.46 22.7297 325.351 20.6203 326.979 19.1504C328.598 17.6879 330.879 16.918 333.558 16.918ZM333.557 17.6143C333.871 17.6143 334.18 17.6254 334.48 17.6475C334.332 17.6366 334.181 17.6286 334.029 17.623L333.557 17.6143Z" fill="#7E05E8"/>
<path fill-rule="evenodd" clip-rule="evenodd" d="M561.802 16.918C564.481 16.918 566.762 17.6878 568.381 19.1504C570.008 20.6203 570.899 22.7297 570.899 25.2607C570.899 27.7975 569.981 29.9053 568.344 31.3721C566.715 32.8314 564.436 33.6025 561.802 33.6025C559.168 33.6025 556.889 32.8312 555.261 31.3721C553.624 29.9053 552.704 27.7976 552.704 25.2607C552.704 22.7297 553.595 20.6203 555.223 19.1504C556.842 17.6879 559.123 16.918 561.802 16.918ZM555.971 19.4268C555.926 19.4625 555.884 19.5003 555.841 19.5371C555.907 19.4807 555.975 19.4254 556.043 19.3711L555.971 19.4268Z" fill="#7E05E8"/>
</svg>
