<svg width="641" height="133" viewBox="0 0 641 133" fill="none" xmlns="http://www.w3.org/2000/svg">
<path d="M576.566 47.6273L576.556 47.6368C577.69 47.8293 578.506 48.7999 578.506 49.9243V73.9724L570.135 72.8085C568.982 72.6547 568.127 71.6744 568.127 70.5115V46.2141L576.566 47.6273Z" fill="#79E2FF"/>
<path fill-rule="evenodd" clip-rule="evenodd" d="M624.871 7.6051C629.023 7.60514 632.406 10.9499 632.406 15.0924V105.862C632.406 109.668 629.532 112.869 625.726 113.311L521.356 125.345C516.877 125.864 512.946 122.384 512.946 117.896V15.0924C512.946 10.9691 516.329 7.6051 520.481 7.6051H624.871ZM598.824 32.9115L570.105 36.9104C568.952 37.0641 568.096 38.0444 568.096 39.2074V46.2141L548.037 42.8402C546.615 42.6001 545.317 43.6958 545.317 45.1276V96.7601C545.317 98.2018 546.615 99.2878 548.037 99.0475L576.545 94.271C577.679 94.0788 578.496 93.1081 578.496 91.9836V73.9714L598.853 76.7978H598.843C600.256 76.99 601.505 75.9135 601.505 74.5008H601.486V35.2085C601.486 33.8055 600.227 32.7194 598.824 32.9115Z" fill="#79E2FF"/>
<path d="M244.852 43.7114C234.529 43.7114 226.357 50.163 222.594 63.4961C219.906 72.9583 213.992 77.5819 203.562 77.5819H187.218V95.0011H205.712C215.282 95.0011 223.347 91.7753 227.755 83.2808C230.766 92.4204 239.153 95.3236 244.959 95.3236C255.389 95.3236 267.002 86.5066 267.002 69.6251C267.002 53.7113 257.755 43.7114 244.852 43.7114ZM236.035 69.6251C236.035 58.1198 251.841 58.1198 251.841 69.6251C251.841 81.1303 236.035 80.5927 236.035 69.6251Z" fill="#79E2FF"/>
<path d="M162.272 71.9905C162.272 75.6464 160.767 77.9044 158.186 77.9044C155.605 77.9044 153.885 75.6464 153.885 71.9905V48.0124H138.616V73.1733C138.616 76.3991 137.541 77.9044 135.928 77.9044C134.315 77.9044 133.24 76.6141 133.24 74.4636V53.9263H117.972V73.1733C117.972 76.2916 116.896 77.9044 115.068 77.9044C113.133 77.9044 112.058 76.5066 112.058 74.0335V53.9263H96.789V71.5604C96.789 75.4314 95.1762 77.9044 92.273 77.9044C89.7999 77.9044 88.4021 76.2916 88.4021 73.6034V47.6898H73.1334V66.3992C73.1334 74.141 70.1227 77.5819 63.2411 77.5819H44.7467C30.7684 77.5819 27.2201 63.9261 38.5103 50.7005H20.7686C8.94076 74.7862 21.9513 95.001 43.6715 95.001H47.865C66.5744 95.001 71.5206 93.2806 75.6065 88.9796C78.1871 93.1731 82.3806 95.3236 88.4021 95.3236C93.1332 95.3236 97.7568 92.958 99.4772 88.9796C101.198 92.743 105.606 95.3236 110.337 95.3236C115.068 95.3236 119.907 92.5279 121.197 88.9796C122.703 92.743 127.326 95.3236 132.272 95.3236C136.466 95.3236 140.767 92.8505 142.487 88.9796C145.498 92.743 151.519 95.3236 157.218 95.3236C167.218 95.3236 177.541 88.0118 177.541 72.8507V30.4857H162.272V71.9905Z" fill="#79E2FF"/>
<path d="M46.0371 46.6144C49.6596 46.6144 52.3564 44.8327 53.3564 41.9414C54.3875 44.8327 57.1703 46.6144 60.8756 46.6144C65.4992 46.6144 68.725 43.7113 68.725 39.3027C68.725 34.8942 65.6067 32.0985 60.8756 32.0985C57.1004 32.0985 54.3725 33.8662 53.3564 36.6855C52.3725 33.8662 49.7284 32.0985 46.0371 32.0985C41.1985 32.0985 38.0802 35.0017 38.0802 39.3027C38.0802 43.6037 41.1985 46.6144 46.0371 46.6144Z" fill="#79E2FF"/>
<path d="M341.517 47.2597C346.141 47.2597 349.366 44.3565 349.366 39.948C349.366 35.5394 346.248 32.7438 341.517 32.7438C336.786 32.7438 333.56 35.647 333.56 39.948C333.56 44.249 336.786 47.2597 341.517 47.2597Z" fill="#79E2FF"/>
<path d="M363.021 98.7643C358.827 98.7643 355.927 100.947 355.229 104.33C354.554 100.947 351.747 98.7643 347.645 98.7643C342.807 98.7643 339.688 101.667 339.688 105.968C339.688 110.27 342.807 113.28 347.645 113.28C351.662 113.28 354.542 111.088 355.228 107.621C355.938 111.088 358.911 113.28 363.021 113.28C367.645 113.28 370.871 110.377 370.871 105.968C370.871 101.56 367.753 98.7643 363.021 98.7643Z" fill="#79E2FF"/>
<path d="M452.376 98.7643C447.537 98.7643 444.419 101.667 444.419 105.968C444.419 110.27 447.644 113.28 452.376 113.28C457.107 113.28 460.225 110.377 460.225 105.968C460.225 101.56 457.107 98.7643 452.376 98.7643Z" fill="#79E2FF"/>
<path d="M456.247 44.464V72.2056C456.247 76.0765 454.742 78.012 451.946 78.012C449.151 78.012 447.215 75.7539 447.215 72.2056V30.4857H431.946V63.0659C431.946 70.1873 429.685 73.9937 425.116 75.8969L418.076 39.1953H402.807L410.171 77.5819H397.968V95.001H401.302C418.398 95.001 428.936 92.2053 434.85 84.6785C437.968 91.5602 443.989 95.3236 451.624 95.3236C461.516 95.3236 471.516 89.1946 471.516 74.2486V44.464H456.247Z" fill="#79E2FF"/>
<path d="M385.603 29.1954C381.511 29.1954 378.651 31.2707 377.864 34.5115C377.104 31.2707 374.334 29.1954 370.334 29.1954C365.496 29.1954 362.377 32.0986 362.377 36.3996C362.377 40.7007 365.496 43.7114 370.334 43.7114C374.255 43.7114 377.092 41.6232 377.864 38.3007C378.662 41.6232 381.591 43.7114 385.603 43.7114C390.226 43.7114 393.452 40.8082 393.452 36.3996C393.452 31.9911 390.334 29.1954 385.603 29.1954Z" fill="#79E2FF"/>
<path d="M378.184 73.711C378.184 76.7217 376.464 77.9045 374.851 77.9045C373.023 77.9045 371.302 76.6142 371.302 73.711V53.9264H356.034V71.7756C356.034 75.754 354.206 77.9045 352.485 77.9045C350.765 77.9045 349.152 76.5067 349.152 73.711V53.9264H333.883V66.3993C333.883 74.0336 331.733 77.582 323.991 77.582H314.529V44.4641H294.637C281.304 44.4641 271.519 55.8618 271.519 69.6251C271.519 83.3883 281.304 95.0011 295.712 95.0011H299.26C297.325 100.592 284.744 99.5171 275.82 94.8935V111.13C287.325 115.538 308.723 115.969 314.099 95.0011H321.841C328.077 95.0011 334.421 92.3129 336.249 88.9796C338.292 93.0656 342.378 95.3237 347.647 95.3237C352.916 95.3237 357.001 92.8506 359.26 88.9796C361.733 93.1731 366.679 95.3237 373.99 95.3237C383.345 95.3237 393.453 88.9796 393.453 73.1734V48.0125H378.184V73.711ZM299.26 77.582H295.712C290.228 77.582 286.787 74.4637 286.787 69.6251C286.787 64.7864 290.228 61.8832 295.712 61.8832H299.26V77.582Z" fill="#79E2FF"/>
</svg>
