<svg width="641" height="133" viewBox="0 0 641 133" fill="none" xmlns="http://www.w3.org/2000/svg">
<path d="M576.566 47.6272L576.556 47.6367C577.69 47.8292 578.506 48.7998 578.506 49.9242V73.9723L570.135 72.8084C568.982 72.6546 568.127 71.6743 568.127 70.5114V46.2139L576.566 47.6272Z" fill="white"/>
<path fill-rule="evenodd" clip-rule="evenodd" d="M624.871 7.60498C629.023 7.60502 632.406 10.9498 632.406 15.0923V105.862C632.406 109.668 629.532 112.869 625.726 113.311L521.356 125.345C516.877 125.864 512.946 122.384 512.946 117.896V15.0923C512.946 10.969 516.329 7.60498 520.481 7.60498H624.871ZM598.824 32.9114L570.105 36.9102C568.952 37.064 568.096 38.0443 568.096 39.2072V46.2139L548.037 42.84C546.615 42.5999 545.317 43.6957 545.317 45.1275V96.76C545.317 98.2016 546.615 99.2876 548.037 99.0474L576.545 94.2709C577.679 94.0787 578.496 93.108 578.496 91.9834V73.9712L598.853 76.7977H598.843C600.256 76.9899 601.505 75.9134 601.505 74.5007H601.486V35.2084C601.486 33.8054 600.227 32.7192 598.824 32.9114Z" fill="white"/>
<path d="M244.852 43.7112C234.529 43.7112 226.357 50.1627 222.594 63.4959C219.906 72.9581 213.992 77.5817 203.562 77.5817H187.218V95.0008H205.712C215.282 95.0008 223.347 91.7751 227.755 83.2805C230.766 92.4202 239.153 95.3234 244.959 95.3234C255.389 95.3234 267.002 86.5063 267.002 69.6248C267.002 53.711 257.755 43.7112 244.852 43.7112ZM236.035 69.6248C236.035 58.1196 251.841 58.1196 251.841 69.6248C251.841 81.13 236.035 80.5924 236.035 69.6248Z" fill="white"/>
<path d="M162.272 71.9904C162.272 75.6463 160.767 77.9043 158.186 77.9043C155.605 77.9043 153.885 75.6463 153.885 71.9904V48.0122H138.616V73.1732C138.616 76.399 137.541 77.9043 135.928 77.9043C134.315 77.9043 133.24 76.614 133.24 74.4635V53.9261H117.972V73.1732C117.972 76.2914 116.896 77.9043 115.068 77.9043C113.133 77.9043 112.058 76.5065 112.058 74.0334V53.9261H96.789V71.5603C96.789 75.4312 95.1762 77.9043 92.273 77.9043C89.7999 77.9043 88.4021 76.2914 88.4021 73.6033V47.6897H73.1334V66.3991C73.1334 74.1409 70.1227 77.5817 63.2411 77.5817H44.7467C30.7684 77.5817 27.2201 63.926 38.5103 50.7004H20.7686C8.94076 74.7861 21.9513 95.0009 43.6715 95.0009H47.865C66.5744 95.0009 71.5206 93.2805 75.6065 88.9794C78.1871 93.1729 82.3806 95.3234 88.4021 95.3234C93.1332 95.3234 97.7568 92.9579 99.4772 88.9794C101.198 92.7428 105.606 95.3234 110.337 95.3234C115.068 95.3234 119.907 92.5278 121.197 88.9794C122.703 92.7428 127.326 95.3234 132.272 95.3234C136.466 95.3234 140.767 92.8504 142.487 88.9794C145.498 92.7428 151.519 95.3234 157.218 95.3234C167.218 95.3234 177.541 88.0117 177.541 72.8506V30.4856H162.272V71.9904Z" fill="white"/>
<path d="M46.0371 46.6143C49.6596 46.6143 52.3564 44.8326 53.3564 41.9413C54.3875 44.8326 57.1703 46.6143 60.8756 46.6143C65.4992 46.6143 68.725 43.7111 68.725 39.3026C68.725 34.8941 65.6067 32.0984 60.8756 32.0984C57.1004 32.0984 54.3725 33.8661 53.3564 36.6854C52.3725 33.8661 49.7284 32.0984 46.0371 32.0984C41.1985 32.0984 38.0802 35.0016 38.0802 39.3026C38.0802 43.6036 41.1985 46.6143 46.0371 46.6143Z" fill="white"/>
<path d="M341.517 47.2596C346.141 47.2596 349.366 44.3564 349.366 39.9479C349.366 35.5393 346.248 32.7437 341.517 32.7437C336.786 32.7437 333.56 35.6468 333.56 39.9479C333.56 44.2489 336.786 47.2596 341.517 47.2596Z" fill="white"/>
<path d="M363.021 98.7642C358.827 98.7642 355.927 100.947 355.229 104.33C354.554 100.947 351.747 98.7642 347.645 98.7642C342.807 98.7642 339.688 101.667 339.688 105.968C339.688 110.269 342.807 113.28 347.645 113.28C351.662 113.28 354.542 111.088 355.228 107.621C355.938 111.088 358.911 113.28 363.021 113.28C367.645 113.28 370.871 110.377 370.871 105.968C370.871 101.56 367.753 98.7642 363.021 98.7642Z" fill="white"/>
<path d="M452.376 98.7642C447.537 98.7642 444.419 101.667 444.419 105.968C444.419 110.269 447.644 113.28 452.376 113.28C457.107 113.28 460.225 110.377 460.225 105.968C460.225 101.56 457.107 98.7642 452.376 98.7642Z" fill="white"/>
<path d="M456.247 44.4639V72.2055C456.247 76.0764 454.742 78.0118 451.946 78.0118C449.151 78.0118 447.215 75.7538 447.215 72.2055V30.4856H431.946V63.0658C431.946 70.1872 429.685 73.9936 425.116 75.8968L418.076 39.1952H402.807L410.171 77.5817H397.968V95.0009H401.302C418.398 95.0009 428.936 92.2052 434.85 84.6784C437.968 91.56 443.989 95.3234 451.624 95.3234C461.516 95.3234 471.516 89.1945 471.516 74.2485V44.4639H456.247Z" fill="white"/>
<path d="M385.603 29.1953C381.511 29.1953 378.651 31.2706 377.864 34.5114C377.104 31.2706 374.334 29.1953 370.334 29.1953C365.496 29.1953 362.377 32.0985 362.377 36.3995C362.377 40.7005 365.496 43.7112 370.334 43.7112C374.255 43.7112 377.092 41.6231 377.864 38.3006C378.662 41.6231 381.591 43.7112 385.603 43.7112C390.226 43.7112 393.452 40.8081 393.452 36.3995C393.452 31.991 390.334 29.1953 385.603 29.1953Z" fill="white"/>
<path d="M378.184 73.7108C378.184 76.7215 376.464 77.9043 374.851 77.9043C373.023 77.9043 371.302 76.614 371.302 73.7108V53.9261H356.034V71.7753C356.034 75.7538 354.206 77.9043 352.485 77.9043C350.765 77.9043 349.152 76.5065 349.152 73.7108V53.9261H333.883V66.3991C333.883 74.0334 331.733 77.5817 323.991 77.5817H314.529V44.4639H294.637C281.304 44.4639 271.519 55.8616 271.519 69.6248C271.519 83.3881 281.304 95.0008 295.712 95.0008H299.26C297.325 100.592 284.744 99.5169 275.82 94.8933V111.13C287.325 115.538 308.723 115.968 314.099 95.0008H321.841C328.077 95.0008 334.421 92.3127 336.249 88.9794C338.292 93.0654 342.378 95.3234 347.647 95.3234C352.916 95.3234 357.001 92.8503 359.26 88.9794C361.733 93.1729 366.679 95.3234 373.99 95.3234C383.345 95.3234 393.453 88.9794 393.453 73.1732V48.0122H378.184V73.7108ZM299.26 77.5817H295.712C290.228 77.5817 286.787 74.4635 286.787 69.6248C286.787 64.7862 290.228 61.883 295.712 61.883H299.26V77.5817Z" fill="white"/>
</svg>
