<svg width="1000" height="987" viewBox="0 0 1000 987" fill="none" xmlns="http://www.w3.org/2000/svg">
<path d="M532.552 335.069C541.988 336.691 548.843 344.797 548.844 354.229V555.548L478.725 545.821C469.068 544.493 461.915 536.318 461.914 526.592V323.203L532.552 335.069Z" fill="#7E05E8"/>
<path fill-rule="evenodd" clip-rule="evenodd" d="M936.888 0C971.687 0.000389782 999.999 28.0019 1000 62.7093V822.607C1000 854.441 975.962 881.267 944.111 884.952L70.4133 985.685C32.8847 990.033 0 960.922 0 923.34V62.7093C0.000717186 28.1492 28.3124 0.000316315 63.1123 0H936.888ZM741.281 231.097C741.281 219.306 730.737 210.239 719.013 211.86L478.578 245.319C468.921 246.647 461.775 254.822 461.775 264.548V323.203L293.814 294.984C281.869 292.994 271.035 302.132 271.035 314.143V746.334C271.035 758.419 281.869 767.483 293.814 765.493L532.475 725.485C541.911 723.864 548.772 715.757 548.774 706.326V555.556L719.161 579.21C730.958 580.831 741.428 571.764 741.428 559.973H741.281V231.097Z" fill="#7E05E8"/>
</svg>
